<svg width="57" height="57" viewBox="0 0 57 57" fill="none" xmlns="http://www.w3.org/2000/svg">
<path d="M57 28.5C57 44.2401 44.2401 57 28.5 57C12.7599 57 0 44.2401 0 28.5C0 12.7599 12.7599 0 28.5 0C44.2401 0 57 12.7599 57 28.5ZM6.82266 28.5C6.82266 40.4721 16.5279 50.1773 28.5 50.1773C40.4721 50.1773 50.1773 40.4721 50.1773 28.5C50.1773 16.5279 40.4721 6.82266 28.5 6.82266C16.5279 6.82266 6.82266 16.5279 6.82266 28.5Z" fill="#E9ECF1"/>
<path d="M28.5 3.40686C28.5 1.5253 30.0308 -0.0210317 31.8989 0.203344C37.4536 0.870505 42.7169 3.16243 47.0093 6.82843C52.1693 11.2355 55.5876 17.3392 56.6491 24.0416C57.7107 30.744 56.3459 37.6052 52.8002 43.3912C49.8508 48.2042 45.5534 52.0104 40.4767 54.3614C38.7693 55.1521 36.8356 54.1545 36.2542 52.365C35.6728 50.5755 36.6693 48.6767 38.3458 47.8225C41.8896 46.0167 44.8896 43.2596 46.9906 39.8311C49.6886 35.4284 50.7271 30.2075 49.9193 25.1075C49.1115 20.0075 46.5105 15.3631 42.5841 12.0096C39.5265 9.39816 35.8214 7.70303 31.893 7.08073C30.0346 6.78635 28.5 5.28841 28.5 3.40686Z" fill="#38C5F8"/>
</svg>
