<svg width="57" height="57" viewBox="0 0 57 57" fill="none" xmlns="http://www.w3.org/2000/svg">
<path d="M57 28.5C57 44.2401 44.2401 57 28.5 57C12.7599 57 0 44.2401 0 28.5C0 12.7599 12.7599 0 28.5 0C44.2401 0 57 12.7599 57 28.5ZM6.82266 28.5C6.82266 40.4721 16.5279 50.1773 28.5 50.1773C40.4721 50.1773 50.1773 40.4721 50.1773 28.5C50.1773 16.5279 40.4721 6.82266 28.5 6.82266C16.5279 6.82266 6.82266 16.5279 6.82266 28.5Z" fill="#E9ECF1"/>
<path d="M28.5 3.40686C28.5 1.5253 30.0308 -0.0210275 31.8989 0.203352C37.2288 0.84352 42.2948 2.98005 46.4936 6.39837C51.5771 10.537 55.0785 16.3016 56.4079 22.7206C57.7372 29.1396 56.8131 35.8206 53.7913 41.6378C50.7695 47.4549 45.8348 52.0526 39.8187 54.656C33.8026 57.2594 27.073 57.7093 20.7639 55.93C14.4549 54.1506 8.952 50.2508 5.18273 44.8876C1.41345 39.5245 -0.391805 33.026 0.0711709 26.4871C0.453567 21.0864 2.36404 15.9308 5.54593 11.6073C6.66118 10.0919 8.8363 10.0345 10.2079 11.3226C11.5795 12.6106 11.6209 14.7547 10.5634 16.3109C8.42427 19.4587 7.13949 23.1322 6.86787 26.9684C6.51558 31.9439 7.88924 36.8888 10.7574 40.9697C13.6255 45.0507 17.8127 48.0181 22.6135 49.3721C27.4142 50.726 32.5349 50.3837 37.1127 48.4027C41.6904 46.4217 45.4454 42.9232 47.7447 38.4968C50.044 34.0704 50.7472 28.9867 49.7357 24.1023C48.7242 19.2179 46.0599 14.8316 42.1917 11.6824C39.2093 9.25435 35.6519 7.67621 31.893 7.08075C30.0346 6.78636 28.5 5.28841 28.5 3.40686Z" fill="#FBA900"/>
</svg>
