<svg width="211" height="33" viewBox="0 0 211 33" fill="none" xmlns="http://www.w3.org/2000/svg">
<g opacity="0.8" clip-path="url(#clip0_1_6031)">
<rect x="205.089" y="20" width="5.91081" height="13" rx="2.75934" fill="#EBEBED"/>
<rect x="190.178" y="20" width="5.91081" height="13" rx="2.75934" fill="#EBEBED"/>
<rect x="174.677" y="20" width="6.50189" height="13" rx="2.75934" fill="#EBEBED"/>
<rect x="155.677" y="7" width="10" height="26" rx="2.75934" fill="#EDEEF1"/>
<rect x="140.766" y="20" width="5.91081" height="13" rx="2.75934" fill="#EBEBED"/>
<rect x="125.855" y="20" width="5.91081" height="13" rx="2.75934" fill="#EBEBED"/>
<rect x="110.353" y="20" width="6.50189" height="13" rx="2.75934" fill="#EBEBED"/>
<rect x="91.353" y="7" width="10" height="26" rx="2.75934" fill="#EDEEF1"/>
<rect x="76.4421" y="20" width="5.91081" height="13" rx="2.75934" fill="#EBEBED"/>
<rect x="61.5312" y="20" width="5.91081" height="13" rx="2.75934" fill="#EBEBED"/>
<rect x="46.0295" y="20" width="6.50189" height="13" rx="2.75934" fill="#EBEBED"/>
<rect x="27.0295" y="7" width="10" height="26" rx="2.75934" fill="#EDEEF1"/>
<rect x="8.02954" y="7" width="10" height="26" rx="2.75934" fill="#EDEEF1"/>
</g>
<defs>
<clipPath id="clip0_1_6031">
<rect width="211" height="33" fill="white" transform="matrix(-1 0 0 1 211 0)"/>
</clipPath>
</defs>
</svg>
