<svg width="57" height="57" viewBox="0 0 57 57" fill="none" xmlns="http://www.w3.org/2000/svg">
<path d="M57 28.5C57 44.2401 44.2401 57 28.5 57C12.7599 57 0 44.2401 0 28.5C0 12.7599 12.7599 0 28.5 0C44.2401 0 57 12.7599 57 28.5ZM6.82266 28.5C6.82266 40.4721 16.5279 50.1773 28.5 50.1773C40.4721 50.1773 50.1773 40.4721 50.1773 28.5C50.1773 16.5279 40.4721 6.82266 28.5 6.82266C16.5279 6.82266 6.82266 16.5279 6.82266 28.5Z" fill="#E9ECF1"/>
<path d="M28.5 3.40686C28.5 1.5253 30.0307 -0.0210126 31.8988 0.203376C36.1084 0.709003 40.1672 2.14955 43.7711 4.43665C48.3374 7.33451 51.9849 11.4718 54.2876 16.3653C56.5903 21.2588 57.4531 26.7064 56.7753 32.072C56.0974 37.4376 53.9069 42.4995 50.4596 46.6666C47.0123 50.8337 42.4505 53.9339 37.307 55.6051C32.1635 57.2763 26.6506 57.4496 21.4123 56.1046C16.174 54.7597 11.4266 51.952 7.72439 48.0096C4.8025 44.8981 2.62693 41.1811 1.34147 37.1409C0.770999 35.3479 2.0031 33.5546 3.85133 33.202C5.69955 32.8494 7.45853 34.0761 8.09593 35.8464C9.09545 38.6225 10.6553 41.1771 12.6914 43.3453C15.5084 46.3451 19.1209 48.4816 23.1068 49.505C27.0928 50.5284 31.2876 50.3966 35.2014 49.1249C39.1152 47.8532 42.5864 45.4942 45.2096 42.3234C47.8327 39.1525 49.4995 35.3008 50.0153 31.218C50.5311 27.1352 49.8745 22.99 48.1223 19.2664C46.3702 15.5429 43.5947 12.3947 40.1201 10.1897C37.6087 8.59591 34.8071 7.5424 31.8929 7.08077C30.0345 6.78638 28.5 5.28841 28.5 3.40686Z" fill="#5FE65F"/>
</svg>
