<svg width="730" height="26" viewBox="0 0 730 26" fill="none" xmlns="http://www.w3.org/2000/svg">
<g opacity="0.78">
<rect width="10" height="26" rx="2.75934" fill="url(#paint0_linear_1_5935)"/>
<rect x="19.2827" y="13" width="6.50189" height="13" rx="2.75934" fill="url(#paint1_linear_1_5935)"/>
<rect x="35.0674" y="13" width="5.91081" height="13" rx="2.75934" fill="url(#paint2_linear_1_5935)"/>
<rect x="50.2607" y="13" width="5.91081" height="13" rx="2.75934" fill="url(#paint3_linear_1_5935)"/>
<rect x="65.4543" width="10" height="26" rx="2.75934" fill="url(#paint4_linear_1_5935)"/>
<rect x="84.7371" y="13" width="6.50189" height="13" rx="2.75934" fill="url(#paint5_linear_1_5935)"/>
<rect x="100.522" y="13" width="5.91081" height="13" rx="2.75934" fill="url(#paint6_linear_1_5935)"/>
<rect x="115.715" y="13" width="5.91081" height="13" rx="2.75934" fill="url(#paint7_linear_1_5935)"/>
<rect x="130.909" width="10" height="26" rx="2.75934" fill="url(#paint8_linear_1_5935)"/>
<rect x="150.191" y="13" width="6.50189" height="13" rx="2.75934" fill="url(#paint9_linear_1_5935)"/>
<rect x="165.976" y="13" width="5.91081" height="13" rx="2.75934" fill="url(#paint10_linear_1_5935)"/>
<rect x="181.17" y="13" width="5.91081" height="13" rx="2.75934" fill="url(#paint11_linear_1_5935)"/>
<rect x="196.363" width="10" height="26" rx="2.75934" fill="url(#paint12_linear_1_5935)"/>
<rect x="215.646" y="13" width="6.50189" height="13" rx="2.75934" fill="url(#paint13_linear_1_5935)"/>
<rect x="231.43" y="13" width="5.91081" height="13" rx="2.75934" fill="url(#paint14_linear_1_5935)"/>
<rect x="246.624" y="13" width="5.91081" height="13" rx="2.75934" fill="url(#paint15_linear_1_5935)"/>
<rect x="261.818" width="10" height="26" rx="2.75934" fill="url(#paint16_linear_1_5935)"/>
<rect x="281.1" y="13" width="6.50189" height="13" rx="2.75934" fill="url(#paint17_linear_1_5935)"/>
<rect x="296.885" y="13" width="5.91081" height="13" rx="2.75934" fill="url(#paint18_linear_1_5935)"/>
<rect x="312.078" y="13" width="5.91081" height="13" rx="2.75934" fill="url(#paint19_linear_1_5935)"/>
<rect x="327.272" width="10" height="26" rx="2.75934" fill="url(#paint20_linear_1_5935)"/>
<rect x="346.555" y="13" width="6.50189" height="13" rx="2.75934" fill="url(#paint21_linear_1_5935)"/>
<rect x="362.339" y="13" width="5.91081" height="13" rx="2.75934" fill="url(#paint22_linear_1_5935)"/>
<rect x="377.533" y="13" width="5.91081" height="13" rx="2.75934" fill="url(#paint23_linear_1_5935)"/>
<rect x="392.726" width="10" height="26" rx="2.75934" fill="url(#paint24_linear_1_5935)"/>
<rect x="412.009" y="13" width="6.50189" height="13" rx="2.75934" fill="url(#paint25_linear_1_5935)"/>
<rect x="427.794" y="13" width="5.91081" height="13" rx="2.75934" fill="url(#paint26_linear_1_5935)"/>
<rect x="442.987" y="13" width="5.91081" height="13" rx="2.75934" fill="url(#paint27_linear_1_5935)"/>
<rect x="458.181" width="10" height="26" rx="2.75934" fill="url(#paint28_linear_1_5935)"/>
<rect x="477.463" y="13" width="6.50189" height="13" rx="2.75934" fill="url(#paint29_linear_1_5935)"/>
<rect x="493.248" y="13" width="5.91081" height="13" rx="2.75934" fill="url(#paint30_linear_1_5935)"/>
<rect x="508.442" y="13" width="5.91081" height="13" rx="2.75934" fill="url(#paint31_linear_1_5935)"/>
<rect x="523.635" width="10" height="26" rx="2.75934" fill="url(#paint32_linear_1_5935)"/>
<rect x="542.918" y="13" width="6.50189" height="13" rx="2.75934" fill="url(#paint33_linear_1_5935)"/>
<rect x="558.703" y="13" width="5.91081" height="13" rx="2.75934" fill="url(#paint34_linear_1_5935)"/>
<rect x="573.896" y="13" width="5.91081" height="13" rx="2.75934" fill="url(#paint35_linear_1_5935)"/>
<rect x="589.09" width="10" height="26" rx="2.75934" fill="url(#paint36_linear_1_5935)"/>
<rect x="608.372" y="13" width="6.50189" height="13" rx="2.75934" fill="url(#paint37_linear_1_5935)"/>
<rect x="624.157" y="13" width="5.91081" height="13" rx="2.75934" fill="url(#paint38_linear_1_5935)"/>
<rect x="639.351" y="13" width="5.91081" height="13" rx="2.75934" fill="url(#paint39_linear_1_5935)"/>
<rect x="654.544" width="10" height="26" rx="2.75934" fill="url(#paint40_linear_1_5935)"/>
<rect x="673.827" y="13" width="6.50189" height="13" rx="2.75934" fill="url(#paint41_linear_1_5935)"/>
<rect x="689.611" y="13" width="5.91081" height="13" rx="2.75934" fill="url(#paint42_linear_1_5935)"/>
<rect x="704.805" y="13" width="5.91081" height="13" rx="2.75934" fill="url(#paint43_linear_1_5935)"/>
<rect x="719.999" width="10" height="26" rx="2.75934" fill="url(#paint44_linear_1_5935)"/>
</g>
<defs>
<linearGradient id="paint0_linear_1_5935" x1="5" y1="0" x2="5" y2="26" gradientUnits="userSpaceOnUse">
<stop stop-color="#0511F2"/>
<stop offset="1" stop-color="#030A8C"/>
</linearGradient>
<linearGradient id="paint1_linear_1_5935" x1="22.5337" y1="13" x2="22.5337" y2="26" gradientUnits="userSpaceOnUse">
<stop stop-color="#0511F2"/>
<stop offset="1" stop-color="#030A8C"/>
</linearGradient>
<linearGradient id="paint2_linear_1_5935" x1="38.0228" y1="13" x2="38.0228" y2="26" gradientUnits="userSpaceOnUse">
<stop stop-color="#0511F2"/>
<stop offset="1" stop-color="#030A8C"/>
</linearGradient>
<linearGradient id="paint3_linear_1_5935" x1="53.2161" y1="13" x2="53.2161" y2="26" gradientUnits="userSpaceOnUse">
<stop stop-color="#0511F2"/>
<stop offset="1" stop-color="#030A8C"/>
</linearGradient>
<linearGradient id="paint4_linear_1_5935" x1="70.4543" y1="0" x2="70.4543" y2="26" gradientUnits="userSpaceOnUse">
<stop stop-color="#0511F2"/>
<stop offset="1" stop-color="#030A8C"/>
</linearGradient>
<linearGradient id="paint5_linear_1_5935" x1="87.988" y1="13" x2="87.988" y2="26" gradientUnits="userSpaceOnUse">
<stop stop-color="#0511F2"/>
<stop offset="1" stop-color="#030A8C"/>
</linearGradient>
<linearGradient id="paint6_linear_1_5935" x1="103.477" y1="13" x2="103.477" y2="26" gradientUnits="userSpaceOnUse">
<stop stop-color="#0511F2"/>
<stop offset="1" stop-color="#030A8C"/>
</linearGradient>
<linearGradient id="paint7_linear_1_5935" x1="118.671" y1="13" x2="118.671" y2="26" gradientUnits="userSpaceOnUse">
<stop stop-color="#0511F2"/>
<stop offset="1" stop-color="#030A8C"/>
</linearGradient>
<linearGradient id="paint8_linear_1_5935" x1="135.909" y1="0" x2="135.909" y2="26" gradientUnits="userSpaceOnUse">
<stop stop-color="#0511F2"/>
<stop offset="1" stop-color="#030A8C"/>
</linearGradient>
<linearGradient id="paint9_linear_1_5935" x1="153.442" y1="13" x2="153.442" y2="26" gradientUnits="userSpaceOnUse">
<stop stop-color="#0511F2"/>
<stop offset="1" stop-color="#030A8C"/>
</linearGradient>
<linearGradient id="paint10_linear_1_5935" x1="168.931" y1="13" x2="168.931" y2="26" gradientUnits="userSpaceOnUse">
<stop stop-color="#0511F2"/>
<stop offset="1" stop-color="#030A8C"/>
</linearGradient>
<linearGradient id="paint11_linear_1_5935" x1="184.125" y1="13" x2="184.125" y2="26" gradientUnits="userSpaceOnUse">
<stop stop-color="#0511F2"/>
<stop offset="1" stop-color="#030A8C"/>
</linearGradient>
<linearGradient id="paint12_linear_1_5935" x1="201.363" y1="0" x2="201.363" y2="26" gradientUnits="userSpaceOnUse">
<stop stop-color="#0511F2"/>
<stop offset="1" stop-color="#030A8C"/>
</linearGradient>
<linearGradient id="paint13_linear_1_5935" x1="218.897" y1="13" x2="218.897" y2="26" gradientUnits="userSpaceOnUse">
<stop stop-color="#0511F2"/>
<stop offset="1" stop-color="#030A8C"/>
</linearGradient>
<linearGradient id="paint14_linear_1_5935" x1="234.386" y1="13" x2="234.386" y2="26" gradientUnits="userSpaceOnUse">
<stop stop-color="#0511F2"/>
<stop offset="1" stop-color="#030A8C"/>
</linearGradient>
<linearGradient id="paint15_linear_1_5935" x1="249.579" y1="13" x2="249.579" y2="26" gradientUnits="userSpaceOnUse">
<stop stop-color="#0511F2"/>
<stop offset="1" stop-color="#030A8C"/>
</linearGradient>
<linearGradient id="paint16_linear_1_5935" x1="266.818" y1="0" x2="266.818" y2="26" gradientUnits="userSpaceOnUse">
<stop stop-color="#0511F2"/>
<stop offset="1" stop-color="#030A8C"/>
</linearGradient>
<linearGradient id="paint17_linear_1_5935" x1="284.351" y1="13" x2="284.351" y2="26" gradientUnits="userSpaceOnUse">
<stop stop-color="#0511F2"/>
<stop offset="1" stop-color="#030A8C"/>
</linearGradient>
<linearGradient id="paint18_linear_1_5935" x1="299.84" y1="13" x2="299.84" y2="26" gradientUnits="userSpaceOnUse">
<stop stop-color="#0511F2"/>
<stop offset="1" stop-color="#030A8C"/>
</linearGradient>
<linearGradient id="paint19_linear_1_5935" x1="315.034" y1="13" x2="315.034" y2="26" gradientUnits="userSpaceOnUse">
<stop stop-color="#0511F2"/>
<stop offset="1" stop-color="#030A8C"/>
</linearGradient>
<linearGradient id="paint20_linear_1_5935" x1="332.272" y1="0" x2="332.272" y2="26" gradientUnits="userSpaceOnUse">
<stop stop-color="#0511F2"/>
<stop offset="1" stop-color="#030A8C"/>
</linearGradient>
<linearGradient id="paint21_linear_1_5935" x1="349.806" y1="13" x2="349.806" y2="26" gradientUnits="userSpaceOnUse">
<stop stop-color="#0511F2"/>
<stop offset="1" stop-color="#030A8C"/>
</linearGradient>
<linearGradient id="paint22_linear_1_5935" x1="365.295" y1="13" x2="365.295" y2="26" gradientUnits="userSpaceOnUse">
<stop stop-color="#0511F2"/>
<stop offset="1" stop-color="#030A8C"/>
</linearGradient>
<linearGradient id="paint23_linear_1_5935" x1="380.488" y1="13" x2="380.488" y2="26" gradientUnits="userSpaceOnUse">
<stop stop-color="#0511F2"/>
<stop offset="1" stop-color="#030A8C"/>
</linearGradient>
<linearGradient id="paint24_linear_1_5935" x1="397.726" y1="0" x2="397.726" y2="26" gradientUnits="userSpaceOnUse">
<stop stop-color="#0511F2"/>
<stop offset="1" stop-color="#030A8C"/>
</linearGradient>
<linearGradient id="paint25_linear_1_5935" x1="415.26" y1="13" x2="415.26" y2="26" gradientUnits="userSpaceOnUse">
<stop stop-color="#0511F2"/>
<stop offset="1" stop-color="#030A8C"/>
</linearGradient>
<linearGradient id="paint26_linear_1_5935" x1="430.749" y1="13" x2="430.749" y2="26" gradientUnits="userSpaceOnUse">
<stop stop-color="#0511F2"/>
<stop offset="1" stop-color="#030A8C"/>
</linearGradient>
<linearGradient id="paint27_linear_1_5935" x1="445.943" y1="13" x2="445.943" y2="26" gradientUnits="userSpaceOnUse">
<stop stop-color="#0511F2"/>
<stop offset="1" stop-color="#030A8C"/>
</linearGradient>
<linearGradient id="paint28_linear_1_5935" x1="463.181" y1="0" x2="463.181" y2="26" gradientUnits="userSpaceOnUse">
<stop stop-color="#0511F2"/>
<stop offset="1" stop-color="#030A8C"/>
</linearGradient>
<linearGradient id="paint29_linear_1_5935" x1="480.714" y1="13" x2="480.714" y2="26" gradientUnits="userSpaceOnUse">
<stop stop-color="#0511F2"/>
<stop offset="1" stop-color="#030A8C"/>
</linearGradient>
<linearGradient id="paint30_linear_1_5935" x1="496.203" y1="13" x2="496.203" y2="26" gradientUnits="userSpaceOnUse">
<stop stop-color="#0511F2"/>
<stop offset="1" stop-color="#030A8C"/>
</linearGradient>
<linearGradient id="paint31_linear_1_5935" x1="511.397" y1="13" x2="511.397" y2="26" gradientUnits="userSpaceOnUse">
<stop stop-color="#0511F2"/>
<stop offset="1" stop-color="#030A8C"/>
</linearGradient>
<linearGradient id="paint32_linear_1_5935" x1="528.635" y1="0" x2="528.635" y2="26" gradientUnits="userSpaceOnUse">
<stop stop-color="#0511F2"/>
<stop offset="1" stop-color="#030A8C"/>
</linearGradient>
<linearGradient id="paint33_linear_1_5935" x1="546.169" y1="13" x2="546.169" y2="26" gradientUnits="userSpaceOnUse">
<stop stop-color="#0511F2"/>
<stop offset="1" stop-color="#030A8C"/>
</linearGradient>
<linearGradient id="paint34_linear_1_5935" x1="561.658" y1="13" x2="561.658" y2="26" gradientUnits="userSpaceOnUse">
<stop stop-color="#0511F2"/>
<stop offset="1" stop-color="#030A8C"/>
</linearGradient>
<linearGradient id="paint35_linear_1_5935" x1="576.851" y1="13" x2="576.851" y2="26" gradientUnits="userSpaceOnUse">
<stop stop-color="#0511F2"/>
<stop offset="1" stop-color="#030A8C"/>
</linearGradient>
<linearGradient id="paint36_linear_1_5935" x1="594.09" y1="0" x2="594.09" y2="26" gradientUnits="userSpaceOnUse">
<stop stop-color="#0511F2"/>
<stop offset="1" stop-color="#030A8C"/>
</linearGradient>
<linearGradient id="paint37_linear_1_5935" x1="611.623" y1="13" x2="611.623" y2="26" gradientUnits="userSpaceOnUse">
<stop stop-color="#0511F2"/>
<stop offset="1" stop-color="#030A8C"/>
</linearGradient>
<linearGradient id="paint38_linear_1_5935" x1="627.112" y1="13" x2="627.112" y2="26" gradientUnits="userSpaceOnUse">
<stop stop-color="#0511F2"/>
<stop offset="1" stop-color="#030A8C"/>
</linearGradient>
<linearGradient id="paint39_linear_1_5935" x1="642.306" y1="13" x2="642.306" y2="26" gradientUnits="userSpaceOnUse">
<stop stop-color="#0511F2"/>
<stop offset="1" stop-color="#030A8C"/>
</linearGradient>
<linearGradient id="paint40_linear_1_5935" x1="659.544" y1="0" x2="659.544" y2="26" gradientUnits="userSpaceOnUse">
<stop stop-color="#0511F2"/>
<stop offset="1" stop-color="#030A8C"/>
</linearGradient>
<linearGradient id="paint41_linear_1_5935" x1="677.078" y1="13" x2="677.078" y2="26" gradientUnits="userSpaceOnUse">
<stop stop-color="#0511F2"/>
<stop offset="1" stop-color="#030A8C"/>
</linearGradient>
<linearGradient id="paint42_linear_1_5935" x1="692.567" y1="13" x2="692.567" y2="26" gradientUnits="userSpaceOnUse">
<stop stop-color="#0511F2"/>
<stop offset="1" stop-color="#030A8C"/>
</linearGradient>
<linearGradient id="paint43_linear_1_5935" x1="707.76" y1="13" x2="707.76" y2="26" gradientUnits="userSpaceOnUse">
<stop stop-color="#0511F2"/>
<stop offset="1" stop-color="#030A8C"/>
</linearGradient>
<linearGradient id="paint44_linear_1_5935" x1="724.999" y1="0" x2="724.999" y2="26" gradientUnits="userSpaceOnUse">
<stop stop-color="#0511F2"/>
<stop offset="1" stop-color="#030A8C"/>
</linearGradient>
</defs>
</svg>
